<svg xmlns="http://www.w3.org/2000/svg" width="288" height="288" fill="none">
  <g clip-path="url(#a)">
    <path fill="url(#b)" d="M2460 5974 c-137 -19 -313 -58 -425 -95 -131 -44 -264 -117 -511 -281 -266 -177 -400 -283 -564 -448 -195 -194 -320 -371 -475 -673 l-80 -155 -44 -5 c-31 -3 -50 -12 -63 -28 -33 -44 -96 -173 -117 -243 -28 -91 -27 -134 4 -181 l26 -37 -20 -82 c-42 -170 -53 -267 -57 -495 -3 -187 -6 -227 -20 -242 -61 -67 -58 -363 4 -485 11 -22 34 -52 51 -68 17 -17 31 -38 31 -48 0 -36 80 -327 120 -438 61 -169 159 -364 225 -450 32 -41 101 -125 154 -186 53 -61 133 -156 179 -211 124 -152 279 -293 508 -463 l100 -74 -4 -57 -4 -56 48 -38 c54 -40 186 -107 249 -124 56 -15 102 -14 134 5 26 16 34 15 147 -14 113 -30 408 -84 759 -140 142 -22 191 -25 440 -26 l280 -1 29 -32 c23 -27 35 -33 70 -33 100 0 326 83 358 132 12 18 32 28 75 37 98 22 274 81 358 121 224 107 533 359 758 619 103 120 145 183 218 323 28 56 77 141 109 189 74 112 95 186 95 330 0 99 -2 108 -28 148 -17 26 -43 49 -65 58 -34 14 -43 14 -99 0 -35 -9 -134 -50 -220 -91 -363 -172 -557 -221 -878 -220 -196 0 -309 14 -513 64 -322 79 -727 257 -984 432 -189 128 -397 328 -521 499 -176 244 -311 615 -348 954 -51 480 142 1071 483 1472 121 143 251 255 483 418 187 131 213 152 231 188 19 36 13 86 -15 125 -27 39 -127 90 -208 107 -87 19 -322 18 -463 -1z"/>
  </g>
  <defs>
    <linearGradient id="b" x1="143.544" x2="143.544" y1="287.94" y2="-.06" gradientUnits="userSpaceOnUse">
      <stop stop-color="#01A1F9"/>
      <stop offset=".722" stop-color="#29F39B"/>
    </linearGradient>
    <clipPath id="a">
      <path fill="#fff" d="M0 0h288v288H0z"/>
    </clipPath>
  </defs>
</svg>
